<svg id="レイヤー_1" data-name="レイヤー 1" xmlns="http://www.w3.org/2000/svg" viewBox="0 0 482.04 295.18"><defs><style>.cls-1{fill:#fff;}.cls-2{fill:#343332;}.cls-3{fill:#00aa7e;}.cls-4{fill:#595757;}</style></defs><title>chatbox-logo_white</title><path class="cls-1" d="M666.87,316.83H533.12a13.36,13.36,0,0,1-13.34-13.34V169.72a13.35,13.35,0,0,1,13.34-13.33H666.87a13.33,13.33,0,0,1,13.35,13.33V303.49a13.34,13.34,0,0,1-13.35,13.34" transform="translate(-358.98 -152.41)"/><path class="cls-2" d="M666.87,320.81H533.12a17.33,17.33,0,0,1-17.32-17.31V169.72a17.33,17.33,0,0,1,17.32-17.3H666.87a17.33,17.33,0,0,1,17.33,17.3V303.49A17.34,17.34,0,0,1,666.87,320.81ZM533.12,160.36a9.38,9.38,0,0,0-9.37,9.36V303.49a9.38,9.38,0,0,0,9.37,9.37H666.87a9.39,9.39,0,0,0,9.39-9.37V169.72a9.38,9.38,0,0,0-9.39-9.36H533.12Z" transform="translate(-358.98 -152.41)"/><path class="cls-3" d="M680.22,209.86H640.07a13.34,13.34,0,0,1-13.34-13.34V156.38h40.14a13.35,13.35,0,0,1,13.35,13.35v40.13Z" transform="translate(-358.98 -152.41)"/><path class="cls-2" d="M684.2,213.83H640.07a17.32,17.32,0,0,1-17.3-17.31V152.41h44.1a17.34,17.34,0,0,1,17.33,17.32v44.1Zm-53.49-53.48v36.17a9.37,9.37,0,0,0,9.36,9.36h36.19V169.73a9.39,9.39,0,0,0-9.39-9.38H630.71Z" transform="translate(-358.98 -152.41)"/><path class="cls-4" d="M386.91,411.29a10.7,10.7,0,0,0-7.13-2.24,13.22,13.22,0,0,0-6.38,1.41,11.48,11.48,0,0,0-4.1,3.73,15.62,15.62,0,0,0-2.2,5.34,29.22,29.22,0,0,0-.67,6.26,23.73,23.73,0,0,0,.71,5.8,15.39,15.39,0,0,0,2.2,5,11.18,11.18,0,0,0,3.89,3.52,11.64,11.64,0,0,0,5.72,1.32c3.48,0,6.2-.9,8.16-2.73a12.4,12.4,0,0,0,3.6-7.71h7.21Q396.77,439,392,443.28t-13,4.31a22.14,22.14,0,0,1-8.66-1.58,16.66,16.66,0,0,1-6.3-4.47,19.3,19.3,0,0,1-3.81-6.92A28.8,28.8,0,0,1,359,425.8a31.31,31.31,0,0,1,1.24-9,20.83,20.83,0,0,1,3.77-7.3,17.68,17.68,0,0,1,6.34-4.89,20.74,20.74,0,0,1,8.87-1.77,26.13,26.13,0,0,1,6.84.86,16.58,16.58,0,0,1,5.63,2.7,14.59,14.59,0,0,1,4,4.6,16.87,16.87,0,0,1,2,6.58h-7.29A10.7,10.7,0,0,0,386.91,411.29Z" transform="translate(-358.98 -152.41)"/><path class="cls-4" d="M417.82,387.5v22.63H418a9.41,9.41,0,0,1,2.32-3.36,12.87,12.87,0,0,1,3.36-2.23,17.5,17.5,0,0,1,3.89-1.3,19.79,19.79,0,0,1,3.94-.4,18.72,18.72,0,0,1,7,1.15,11.62,11.62,0,0,1,4.56,3.23,12.1,12.1,0,0,1,2.44,4.93,26.5,26.5,0,0,1,.71,6.35v28.18h-7v-29a8.53,8.53,0,0,0-2.32-6.3A8.64,8.64,0,0,0,430.5,409a14.29,14.29,0,0,0-5.59,1,10.44,10.44,0,0,0-3.94,2.82,12.08,12.08,0,0,0-2.36,4.26,17.38,17.38,0,0,0-.79,5.34v24.21h-7V387.5h7Z" transform="translate(-358.98 -152.41)"/><path class="cls-4" d="M498.13,446.51a9.92,9.92,0,0,1-5.05,1.08,6.06,6.06,0,0,1-4.35-1.53q-1.62-1.53-1.62-5a16.88,16.88,0,0,1-6.76,5,23.27,23.27,0,0,1-13.84.87,12.85,12.85,0,0,1-4.52-2.06,10.05,10.05,0,0,1-3-3.69,12.4,12.4,0,0,1-1.12-5.52,12.6,12.6,0,0,1,1.24-6,10.84,10.84,0,0,1,3.27-3.77,15.26,15.26,0,0,1,4.64-2.2q2.61-.74,5.34-1.24,2.9-.58,5.52-0.87a29.68,29.68,0,0,0,4.6-.83,7.59,7.59,0,0,0,3.15-1.57,3.86,3.86,0,0,0,1.16-3,7.05,7.05,0,0,0-.87-3.73,6,6,0,0,0-2.24-2.15,9.12,9.12,0,0,0-3.06-1,22.16,22.16,0,0,0-3.36-.26,14.89,14.89,0,0,0-7.46,1.7c-2,1.13-3.07,3.27-3.23,6.43h-7a15.22,15.22,0,0,1,1.66-6.72,12.53,12.53,0,0,1,4-4.43,16.81,16.81,0,0,1,5.68-2.45,29.68,29.68,0,0,1,6.83-.74,40.46,40.46,0,0,1,5.76.4,15.16,15.16,0,0,1,5.18,1.7,10.06,10.06,0,0,1,3.73,3.6,11.57,11.57,0,0,1,1.41,6v22a16.29,16.29,0,0,0,.29,3.64q0.29,1.15,1.94,1.15a8.6,8.6,0,0,0,2.15-.33v5.47Zm-11.44-22a9,9,0,0,1-3.48,1.44q-2.16.45-4.52,0.74t-4.77.66a17.67,17.67,0,0,0-4.31,1.2,7.76,7.76,0,0,0-3.1,2.36,6.53,6.53,0,0,0-1.21,4.16A5.65,5.65,0,0,0,466,438a5.74,5.74,0,0,0,1.82,1.94,7.5,7.5,0,0,0,2.61,1.08,14.62,14.62,0,0,0,3.15.33,16.61,16.61,0,0,0,6-.95,12.42,12.42,0,0,0,4.06-2.39A9.45,9.45,0,0,0,486,434.9a7.85,7.85,0,0,0,.74-3.17v-7.18Z" transform="translate(-358.98 -152.41)"/><path class="cls-4" d="M529.63,403.83V410h-8.54v26.6a7.68,7.68,0,0,0,.21,2,2,2,0,0,0,.79,1.17,3.37,3.37,0,0,0,1.62.53,21.59,21.59,0,0,0,2.69.13h3.23v6.22h-5.39a24.67,24.67,0,0,1-4.68-.37,6.84,6.84,0,0,1-3.15-1.37,5.83,5.83,0,0,1-1.78-2.81,16.28,16.28,0,0,1-.58-4.8V410h-7.3v-6.22H514V391h7v12.84h8.54Z" transform="translate(-358.98 -152.41)"/><path class="cls-4" d="M554.66,387.5v22.13h0.17a10.56,10.56,0,0,1,5.47-5.19,20.41,20.41,0,0,1,8.2-1.61,19.35,19.35,0,0,1,8.66,1.82,17.63,17.63,0,0,1,6.14,4.93,21.86,21.86,0,0,1,3.68,7.17,29.28,29.28,0,0,1,1.25,8.62A30.12,30.12,0,0,1,587,434a20.14,20.14,0,0,1-3.64,7.09,17.06,17.06,0,0,1-6.14,4.77,19.77,19.77,0,0,1-8.58,1.74,21.39,21.39,0,0,1-3.52-.34,19,19,0,0,1-3.85-1.08,14.79,14.79,0,0,1-3.61-2,11.27,11.27,0,0,1-2.86-3.2h-0.17v5.73h-7V387.5h7ZM580,419a15.7,15.7,0,0,0-2.4-5.1,11.65,11.65,0,0,0-4.15-3.56A12.46,12.46,0,0,0,567.5,409a11.62,11.62,0,0,0-10.11,5.1,15.49,15.49,0,0,0-2.28,5.19,25.12,25.12,0,0,0,0,12,15,15,0,0,0,2.36,5.18,12,12,0,0,0,4.18,3.62,13.17,13.17,0,0,0,6.22,1.36,12,12,0,0,0,6.09-1.41,11.32,11.32,0,0,0,3.94-3.73,16.23,16.23,0,0,0,2.15-5.3,28.45,28.45,0,0,0,.66-6.14A21.87,21.87,0,0,0,580,419Z" transform="translate(-358.98 -152.41)"/><path class="cls-4" d="M600.49,416.46a20,20,0,0,1,4-7.12,18.78,18.78,0,0,1,6.55-4.77,24.09,24.09,0,0,1,18,0,19,19,0,0,1,6.5,4.77,20.15,20.15,0,0,1,4,7.12,28.8,28.8,0,0,1,1.31,8.83,28.44,28.44,0,0,1-1.31,8.79,20.31,20.31,0,0,1-4,7.09,18.6,18.6,0,0,1-6.5,4.72,24.57,24.57,0,0,1-18,0,18.44,18.44,0,0,1-6.55-4.72,20.15,20.15,0,0,1-4-7.09,28.17,28.17,0,0,1-1.32-8.79A28.52,28.52,0,0,1,600.49,416.46Zm7.16,15.75a14.48,14.48,0,0,0,2.87,5.06,12.35,12.35,0,0,0,4.27,3.1,12.72,12.72,0,0,0,14.63-3.1,14.75,14.75,0,0,0,2.85-5.06,23.53,23.53,0,0,0,0-13.84,15.1,15.1,0,0,0-2.85-5.1,12.38,12.38,0,0,0-4.27-3.15,13,13,0,0,0-10.35,0,12.13,12.13,0,0,0-4.27,3.15,14.83,14.83,0,0,0-2.87,5.1A23.73,23.73,0,0,0,607.65,432.22Z" transform="translate(-358.98 -152.41)"/><path class="cls-4" d="M649,403.83h9l10.28,15,10.69-15h8.45l-14.75,19.72,16.57,23.13h-9L668.3,428.94l-11.93,17.74h-8.54l16.08-22.55Z" transform="translate(-358.98 -152.41)"/><path class="cls-4" d="M711.06,437.48v9.2h-9.2v-9.2h9.2Z" transform="translate(-358.98 -152.41)"/><path class="cls-4" d="M728.71,396.12V387.5h7v8.62h-7Zm7,7.71v42.85h-7V403.83h7Z" transform="translate(-358.98 -152.41)"/><path class="cls-4" d="M760,403.83v6.79h0.16q4.4-7.78,13.93-7.78a18.76,18.76,0,0,1,7,1.15,11.67,11.67,0,0,1,4.56,3.23,12.17,12.17,0,0,1,2.45,4.93,26.74,26.74,0,0,1,.7,6.35v28.18h-7v-29A8,8,0,0,0,773,409a14.25,14.25,0,0,0-5.59,1,10.44,10.44,0,0,0-3.94,2.82,12,12,0,0,0-2.36,4.26,17.24,17.24,0,0,0-.79,5.34v24.21h-7V403.83H760Z" transform="translate(-358.98 -152.41)"/><path class="cls-4" d="M830,411.29a10.72,10.72,0,0,0-7.13-2.24,13.25,13.25,0,0,0-6.38,1.41,11.56,11.56,0,0,0-4.1,3.73,15.81,15.81,0,0,0-2.2,5.34,29.52,29.52,0,0,0-.66,6.26,23.5,23.5,0,0,0,.7,5.8,15.38,15.38,0,0,0,2.19,5,11.16,11.16,0,0,0,3.9,3.52,11.62,11.62,0,0,0,5.72,1.32c3.49,0,6.21-.9,8.16-2.73a12.35,12.35,0,0,0,3.61-7.71H841q-1.16,7.94-5.93,12.26t-13,4.31a22.11,22.11,0,0,1-8.66-1.58,16.66,16.66,0,0,1-6.3-4.47,19.31,19.31,0,0,1-3.82-6.92,29.08,29.08,0,0,1-1.28-8.82,31.31,31.31,0,0,1,1.24-9,20.83,20.83,0,0,1,3.77-7.3,17.66,17.66,0,0,1,6.34-4.89,20.78,20.78,0,0,1,8.88-1.77,26.06,26.06,0,0,1,6.83.86,16.67,16.67,0,0,1,5.64,2.7,14.63,14.63,0,0,1,4,4.6,17,17,0,0,1,2,6.58h-7.3A10.77,10.77,0,0,0,830,411.29Z" transform="translate(-358.98 -152.41)"/></svg>